<?xml version="1.0" encoding="UTF-8"?>
<svg width="100px" height="10px" viewBox="0 0 100 10" version="1.1" xmlns="http://www.w3.org/2000/svg" xmlns:xlink="http://www.w3.org/1999/xlink">
    <!-- Generator: Sketch 41 (35326) - http://www.bohemiancoding.com/sketch -->
    <title>altolabs</title>
    <desc>Created with Sketch.</desc>
    <defs></defs>
    <g id="Page-1" stroke="none" stroke-width="1" fill="none" fill-rule="evenodd">
        <path d="M14.8346667,0.110166667 L14.8346667,3.17127778 L14.8346667,6.93887037 L14.8346667,9.99998148 L20.7213333,9.99998148 L20.7213333,7.76294444 L17.0717037,7.76294444 L17.0717037,6.93887037 L17.0717037,1.0522037 L17.0717037,0.110166667 L14.8346667,0.110166667 Z M54.6291667,0.110166667 L54.6291667,3.17127778 L54.6291667,6.93887037 L54.6291667,9.99998148 L60.3982407,9.99998148 L60.3982407,7.76294444 L56.7482407,7.76294444 L56.7482407,6.93887037 L56.7482407,1.0522037 L56.7482407,0.110166667 L54.6291667,0.110166667 Z M25.313,0.110166667 L25.313,2.3472037 L28.1387407,2.3472037 L28.1387407,3.28924074 L28.1387407,9.05812963 L28.1387407,9.99998148 L30.258,9.99998148 L30.258,9.05812963 L30.258,3.28924074 L30.258,2.3472037 L33.0835556,2.3472037 L33.0835556,0.110166667 L25.313,0.110166667 Z M43.2088519,9.99992593 C45.9166296,9.99992593 48.1536667,7.76307407 48.1536667,5.05511111 C48.1536667,2.34714815 45.9166296,0.110296296 43.2088519,0.110296296 C40.5008889,0.110296296 38.2638519,2.34714815 38.2638519,5.05511111 C38.2638519,7.76307407 40.5008889,9.99992593 43.2088519,9.99992593 Z M40.5008889,5.05511111 C40.5008889,3.52455556 41.6782963,2.34714815 43.2088519,2.34714815 C44.7394074,2.34714815 45.9166296,3.52455556 45.9166296,5.05511111 C45.9166296,6.58566667 44.7394074,7.76307407 43.2088519,7.76307407 C41.6782963,7.88066667 40.5008889,6.58566667 40.5008889,5.05511111 Z M80.648537,3.28905556 L80.648537,6.93887037 L80.648537,9.99998148 L85.1224259,9.99998148 C86.888537,9.99998148 88.4190926,8.46942593 88.4190926,6.70331481 C88.4190926,5.64387037 87.9481667,4.81961111 87.2416852,4.11331481 C87.5950185,3.6422037 87.8303889,3.17127778 87.8303889,2.58275926 C87.8303889,1.28757407 86.7707593,0.110166667 85.3579815,0.110166667 L80.648537,0.110166667 L80.648537,3.28905556 Z M85.3579815,2.3472037 C85.4757593,2.3472037 85.593537,2.46498148 85.593537,2.58275926 C85.593537,2.70035185 85.593537,2.70035185 85.4757593,2.81812963 C85.2402037,3.05368519 84.0629815,3.6422037 82.7677963,4.11312963 L82.7677963,2.3472037 L85.3579815,2.3472037 Z M85.1224259,7.88072222 L82.7677963,7.88072222 L82.7677963,6.58572222 C83.4742778,6.35016667 84.1805741,5.99701852 85.0048333,5.64387037 L85.1224259,5.64387037 C85.7111296,5.64387037 86.2998333,6.1147963 86.2998333,6.82109259 C86.2998333,7.29201852 85.7111296,7.88072222 85.1224259,7.88072222 Z M95.7186667,5.6437963 C96.5427407,6.11472222 97.6023704,6.8212037 97.6023704,7.29212963 C97.6023704,7.64527778 97.367,7.88083333 97.0138519,7.88083333 L93.9525556,7.88083333 L93.9525556,10.0000926 L97.0138519,10.0000926 C98.662,10.0000926 99.8394074,8.82268519 99.8394074,7.29212963 C99.8394074,5.52601852 98.3088519,4.58416667 96.8960741,3.76009259 C96.4251481,3.40675926 95.4831111,2.93583333 95.3655185,2.58268519 C95.3655185,2.46490741 95.3655185,2.46490741 95.4831111,2.34712963 C95.7186667,2.22953704 95.9542222,2.22953704 95.9542222,2.22953704 L98.662,2.22953704 L98.662,0.110277778 L95.9542222,0.110277778 C94.7768148,0.110277778 93.1284815,0.934351852 93.1284815,2.70046296 C93.1284815,4.11324074 94.5412593,4.93731481 95.7186667,5.6437963 Z M68.2864259,9.99994444 L68.6395741,9.17587037 L72.4071667,9.17587037 L72.7603148,9.99994444 L75.1149444,9.99994444 L70.4056852,0.110314815 L65.6962407,9.99994444 L68.2864259,9.99994444 Z M69.6992037,7.05661111 L70.6410556,5.17290741 L71.5829074,7.05661111 L69.6992037,7.05661111 Z M2.94340741,9.17587037 L6.71081481,9.17587037 L7.06414815,9.99994444 L9.41877778,9.99994444 L4.70933333,0.110314815 L7.40740743e-05,9.99994444 L2.3547037,9.99994444 L2.94340741,9.17587037 Z M3.88525926,7.05661111 L4.82711111,5.17290741 L5.76896296,7.05661111 L3.88525926,7.05661111 Z" id="altolabs" fill="#000000"></path>
    </g>
</svg>