<?xml version="1.0" encoding="UTF-8"?>
<svg width="18px" height="16px" viewBox="0 0 18 16" version="1.1" xmlns="http://www.w3.org/2000/svg" xmlns:xlink="http://www.w3.org/1999/xlink">
    <!-- Generator: Sketch 48.2 (47327) - http://www.bohemiancoding.com/sketch -->
    <title>app-window</title>
    <desc>Created with Sketch.</desc>
    <defs></defs>
    <g id="Home-Copy-3" stroke="none" stroke-width="1" fill="none" fill-rule="evenodd" transform="translate(-130.000000, -1274.000000)">
        <g id="Panel-2---Examples" transform="translate(119.000000, 895.000000)" fill="#F28F00" fill-rule="nonzero" stroke="#F28F00" stroke-width="0.3">
            <g id="TEXT">
                <g id="Place-it-anywhere" transform="translate(0.000000, 367.000000)">
                    <g id="circle">
                        <g id="app-window" transform="translate(12.000000, 13.000000)">
                            <path d="M14.3333333,0 L1.66666667,0 C0.748,0 0,0.714 0,1.59090909 L0,12.4090909 C0,13.286 0.748,14 1.66666667,14 L14.3333333,14 C15.252,14 16,13.286 16,12.4090909 L16,1.59090909 C16,0.714 15.252,0 14.3333333,0 Z M1.66666667,0.636363636 L14.3333333,0.636363636 C14.8846667,0.636363636 15.3333333,1.06463636 15.3333333,1.59090909 L15.3333333,2.54545455 L0.666666667,2.54545455 L0.666666667,1.59090909 C0.666666667,1.06463636 1.11533333,0.636363636 1.66666667,0.636363636 Z M14.3333333,13.3636364 L1.66666667,13.3636364 C1.11533333,13.3636364 0.666666667,12.9353636 0.666666667,12.4090909 L0.666666667,3.18181818 L15.3333333,3.18181818 L15.3333333,12.4090909 C15.3333333,12.9353636 14.8846667,13.3636364 14.3333333,13.3636364 Z" id="Shape"></path>
                            <ellipse id="Oval" cx="1.66666667" cy="1.59090909" rx="1" ry="1"></ellipse>
                            <ellipse id="Oval" cx="3" cy="1.59090909" rx="1" ry="1"></ellipse>
                            <ellipse id="Oval" cx="4.33333333" cy="1.59090909" rx="1" ry="1"></ellipse>
                        </g>
                    </g>
                </g>
            </g>
        </g>
    </g>
</svg>