<?xml version="1.0" encoding="UTF-8"?>
<svg width="18px" height="16px" viewBox="0 0 18 16" version="1.1" xmlns="http://www.w3.org/2000/svg" xmlns:xlink="http://www.w3.org/1999/xlink">
    <!-- Generator: Sketch 48.2 (47327) - http://www.bohemiancoding.com/sketch -->
    <title>Group 4</title>
    <desc>Created with Sketch.</desc>
    <defs></defs>
    <g id="Home-Copy-3" stroke="none" stroke-width="1" fill="none" fill-rule="evenodd" transform="translate(-130.000000, -1274.000000)">
        <g id="Panel-2---Examples" transform="translate(119.000000, 895.000000)" fill="#F28F00" fill-rule="nonzero" stroke="#F28F00" stroke-width="0.3">
            <g id="TEXT">
                <g id="Place-it-anywhere" transform="translate(0.000000, 367.000000)">
                    <g id="circle">
                        <g id="Group-4" transform="translate(12.000000, 13.000000)">
                            <g id="app-window">
                                <path d="M14.3333333,0 L1.66666667,0 C0.748,0 0,0.714 0,1.59090909 L0,12.4090909 C0,13.286 0.748,14 1.66666667,14 L14.3333333,14 C15.252,14 16,13.286 16,12.4090909 L16,1.59090909 C16,0.714 15.252,0 14.3333333,0 Z M1.66666667,0.636363636 L14.3333333,0.636363636 C14.8846667,0.636363636 15.3333333,1.06463636 15.3333333,1.59090909 L15.3333333,2.54545455 L0.666666667,2.54545455 L0.666666667,1.59090909 C0.666666667,1.06463636 1.11533333,0.636363636 1.66666667,0.636363636 Z M14.3333333,13.3636364 L1.66666667,13.3636364 C1.11533333,13.3636364 0.666666667,12.9353636 0.666666667,12.4090909 L0.666666667,3.18181818 L15.3333333,3.18181818 L15.3333333,12.4090909 C15.3333333,12.9353636 14.8846667,13.3636364 14.3333333,13.3636364 Z" id="Shape"></path>
                                <ellipse id="Oval" cx="1.66666667" cy="1.59090909" rx="1" ry="1"></ellipse>
                                <ellipse id="Oval" cx="3" cy="1.59090909" rx="1" ry="1"></ellipse>
                                <ellipse id="Oval" cx="4.33333333" cy="1.59090909" rx="1" ry="1"></ellipse>
                            </g>
                            <path d="M11.3,7.8 C11.7176,7.8 11.9414,7.845 12.0476,7.9518 C12.1544,8.0586 12.2,8.2824 12.2,8.7 C12.2,8.8656 12.3344,9 12.5,9 C12.6656,9 12.8,8.8656 12.8,8.7 C12.8,8.2824 12.845,8.058 12.9518,7.9518 C13.0586,7.8456 13.2824,7.8 13.7,7.8 C13.8656,7.8 14,7.6656 14,7.5 C14,7.3344 13.8656,7.2 13.7,7.2 C13.2824,7.2 13.0586,7.155 12.9524,7.0482 C12.8456,6.9414 12.8,6.7176 12.8,6.3 C12.8,6.1344 12.6656,6 12.5,6 C12.3344,6 12.2,6.1344 12.2,6.3 C12.2,6.7176 12.155,6.9414 12.0482,7.0476 C11.9414,7.1544 11.7176,7.2 11.3,7.2 C11.1344,7.2 11,7.3344 11,7.5 C11,7.6656 11.1344,7.8 11.3,7.8 Z" id="Shape"></path>
                            <path d="M3.3,9.8 C3.7176,9.8 3.9414,9.845 4.0476,9.9518 C4.1544,10.0586 4.2,10.2824 4.2,10.7 C4.2,10.8656 4.3344,11 4.5,11 C4.6656,11 4.8,10.8656 4.8,10.7 C4.8,10.2824 4.845,10.058 4.9518,9.9518 C5.0586,9.8456 5.2824,9.8 5.7,9.8 C5.8656,9.8 6,9.6656 6,9.5 C6,9.3344 5.8656,9.2 5.7,9.2 C5.2824,9.2 5.0586,9.155 4.9524,9.0482 C4.8456,8.9414 4.8,8.7176 4.8,8.3 C4.8,8.1344 4.6656,8 4.5,8 C4.3344,8 4.2,8.1344 4.2,8.3 C4.2,8.7176 4.155,8.9414 4.0482,9.0476 C3.9414,9.1544 3.7176,9.2 3.3,9.2 C3.1344,9.2 3,9.3344 3,9.5 C3,9.6656 3.1344,9.8 3.3,9.8 Z" id="Shape"></path>
                            <path d="M8.3,5.8 C8.7176,5.8 8.942,5.845 9.0482,5.9518 C9.1544,6.0586 9.2,6.2824 9.2,6.7 C9.2,6.8656 9.3344,7 9.5,7 C9.6656,7 9.8,6.8656 9.8,6.7 C9.8,6.2818 9.845,6.058 9.9518,5.9518 C10.0586,5.8456 10.2824,5.8 10.7,5.8 C10.8656,5.8 11,5.6656 11,5.5 C11,5.3344 10.8656,5.2 10.7,5.2 C10.2824,5.2 10.0586,5.155 9.9524,5.0482 C9.8456,4.9414 9.8,4.7176 9.8,4.3 C9.8,4.1344 9.6656,4 9.5,4 C9.3344,4 9.2,4.1344 9.2,4.3 C9.2,4.7176 9.155,4.9414 9.0482,5.0476 C8.9414,5.1544 8.7176,5.2 8.3,5.2 C8.1344,5.2 8,5.3344 8,5.5 C8,5.6656 8.1344,5.8 8.3,5.8 Z" id="Shape"></path>
                        </g>
                    </g>
                </g>
            </g>
        </g>
    </g>
</svg>