<?xml version="1.0" encoding="UTF-8"?>
<svg width="17px" height="19px" viewBox="0 0 17 19" version="1.1" xmlns="http://www.w3.org/2000/svg" xmlns:xlink="http://www.w3.org/1999/xlink">
    <!-- Generator: Sketch 48.2 (47327) - http://www.bohemiancoding.com/sketch -->
    <title>big-shopping</title>
    <desc>Created with Sketch.</desc>
    <defs></defs>
    <g id="Home-Copy-3" stroke="none" stroke-width="1" fill="none" fill-rule="evenodd" transform="translate(-131.000000, -1117.000000)">
        <g id="Panel-2---Examples" transform="translate(119.000000, 895.000000)" fill="#F28F00" fill-rule="nonzero" stroke="#F28F00" stroke-width="0.3">
            <g id="TEXT">
                <g id="More-engagement" transform="translate(0.000000, 211.000000)">
                    <g id="circle">
                        <g id="big-shopping" transform="translate(12.000000, 12.000000)">
                            <g id="Group">
                                <path d="M7.08333333,17 L0.708333333,17 C0.512833333,17 0.354166667,16.8413333 0.354166667,16.6458333 L0.354166667,8.85416667 C0.354166667,8.65866667 0.512833333,8.5 0.708333333,8.5 C0.903833333,8.5 1.0625,8.65866667 1.0625,8.85416667 L1.0625,16.2916667 L6.72916667,16.2916667 L6.72916667,8.85416667 C6.72916667,8.65866667 6.88783333,8.5 7.08333333,8.5 C7.27883333,8.5 7.4375,8.65866667 7.4375,8.85416667 L7.4375,16.6458333 C7.4375,16.8413333 7.27883333,17 7.08333333,17 Z" id="Shape"></path>
                                <path d="M1.77083333,9.20833333 L0.708333333,9.20833333 C0.574458333,9.20833333 0.451916667,9.13254167 0.391708333,9.01283333 C0.3315,8.893125 0.34425,8.74933333 0.425,8.64166667 L1.4875,7.225 C1.60579167,7.06775 1.8275,7.03729167 1.98333333,7.15416667 C2.139875,7.27175 2.17175,7.49345833 2.054875,7.65 L1.41666667,8.5 L1.77083333,8.5 C1.96633333,8.5 2.125,8.65866667 2.125,8.85416667 C2.125,9.04966667 1.96633333,9.20833333 1.77083333,9.20833333 Z" id="Shape"></path>
                                <path d="M7.08333333,9.20833333 L6.02083333,9.20833333 C5.82533333,9.20833333 5.66666667,9.04966667 5.66666667,8.85416667 C5.66666667,8.65866667 5.82533333,8.5 6.02083333,8.5 L6.375,8.5 L5.7375,7.65 C5.620625,7.49345833 5.6525,7.27175 5.80904167,7.15416667 C5.96558333,7.03729167 6.18729167,7.06775 6.304875,7.225 L7.367375,8.64166667 C7.44741667,8.748625 7.460875,8.89241667 7.40066667,9.012125 C7.34045833,9.13183333 7.21791667,9.20833333 7.08333333,9.20833333 Z" id="Shape"></path>
                                <path d="M4.95833333,9.20833333 C4.76283333,9.20833333 4.60416667,9.04966667 4.60416667,8.85416667 L4.60416667,7.08333333 C4.60416667,6.69304167 4.28683333,6.375 3.89583333,6.375 C3.50483333,6.375 3.1875,6.69304167 3.1875,7.08333333 L3.1875,8.85416667 C3.1875,9.04966667 3.02883333,9.20833333 2.83333333,9.20833333 C2.63783333,9.20833333 2.47916667,9.04966667 2.47916667,8.85416667 L2.47916667,7.08333333 C2.47916667,6.30204167 3.11454167,5.66666667 3.89583333,5.66666667 C4.677125,5.66666667 5.3125,6.30204167 5.3125,7.08333333 L5.3125,8.85416667 C5.3125,9.04966667 5.15383333,9.20833333 4.95833333,9.20833333 Z" id="Shape"></path>
                                <path d="M12.75,10.625 C12.5545,10.625 12.3958333,10.4663333 12.3958333,10.2708333 L12.3958333,9.20833333 C12.3958333,8.81804167 12.0785,8.5 11.6875,8.5 C11.2965,8.5 10.9791667,8.81804167 10.9791667,9.20833333 L10.9791667,10.2708333 C10.9791667,10.4663333 10.8205,10.625 10.625,10.625 C10.4295,10.625 10.2708333,10.4663333 10.2708333,10.2708333 L10.2708333,9.20833333 C10.2708333,8.42704167 10.9062083,7.79166667 11.6875,7.79166667 C12.4687917,7.79166667 13.1041667,8.42704167 13.1041667,9.20833333 L13.1041667,10.2708333 C13.1041667,10.4663333 12.9455,10.625 12.75,10.625 Z" id="Shape"></path>
                                <path d="M16.2916667,15.5833333 L7.08333333,15.5833333 C6.88783333,15.5833333 6.72916667,15.4246667 6.72916667,15.2291667 L6.72916667,9.5625 C6.72916667,9.367 6.88783333,9.20833333 7.08333333,9.20833333 L9.5625,9.20833333 C9.758,9.20833333 9.91666667,9.367 9.91666667,9.5625 C9.91666667,9.758 9.758,9.91666667 9.5625,9.91666667 L7.4375,9.91666667 L7.4375,14.875 L15.9375,14.875 L15.9375,9.91666667 L13.8125,9.91666667 C13.617,9.91666667 13.4583333,9.758 13.4583333,9.5625 C13.4583333,9.367 13.617,9.20833333 13.8125,9.20833333 L16.2916667,9.20833333 C16.4871667,9.20833333 16.6458333,9.367 16.6458333,9.5625 L16.6458333,15.2291667 C16.6458333,15.4246667 16.4871667,15.5833333 16.2916667,15.5833333 Z" id="Shape"></path>
                                <path d="M14.875,8.5 C14.6795,8.5 14.5208333,8.34133333 14.5208333,8.14583333 L14.5208333,2.83333333 L6.72916667,2.83333333 L6.72916667,6.02083333 C6.72916667,6.21633333 6.5705,6.375 6.375,6.375 C6.1795,6.375 6.02083333,6.21633333 6.02083333,6.02083333 L6.02083333,2.47916667 C6.02083333,2.28366667 6.1795,2.125 6.375,2.125 L14.875,2.125 C15.0705,2.125 15.2291667,2.28366667 15.2291667,2.47916667 L15.2291667,8.14583333 C15.2291667,8.34133333 15.0705,8.5 14.875,8.5 Z" id="Shape"></path>
                                <path d="M15.5833333,2.83333333 L5.66666667,2.83333333 C5.47116667,2.83333333 5.3125,2.67466667 5.3125,2.47916667 L5.3125,0.354166667 C5.3125,0.158666667 5.47116667,0 5.66666667,0 L15.5833333,0 C15.7788333,0 15.9375,0.158666667 15.9375,0.354166667 L15.9375,2.47916667 C15.9375,2.67466667 15.7788333,2.83333333 15.5833333,2.83333333 Z M6.02083333,2.125 L15.2291667,2.125 L15.2291667,0.708333333 L6.02083333,0.708333333 L6.02083333,2.125 Z" id="Shape"></path>
                                <path d="M10.625,7.08333333 C10.4295,7.08333333 10.2708333,6.92466667 10.2708333,6.72916667 L10.2708333,0.354166667 C10.2708333,0.158666667 10.4295,0 10.625,0 C10.8205,0 10.9791667,0.158666667 10.9791667,0.354166667 L10.9791667,6.72916667 C10.9791667,6.92466667 10.8205,7.08333333 10.625,7.08333333 Z" id="Shape"></path>
                                <path d="M14.875,5.66666667 L6.375,5.66666667 C6.1795,5.66666667 6.02083333,5.508 6.02083333,5.3125 C6.02083333,5.117 6.1795,4.95833333 6.375,4.95833333 L14.875,4.95833333 C15.0705,4.95833333 15.2291667,5.117 15.2291667,5.3125 C15.2291667,5.508 15.0705,5.66666667 14.875,5.66666667 Z" id="Shape"></path>
                            </g>
                            <path d="M10.625,8.85416667 L6.375,8.85416667 C6.1795,8.85416667 6.02083333,8.6955 6.02083333,8.5 C6.02083333,8.3045 6.1795,8.14583333 6.375,8.14583333 L10.625,8.14583333 C10.8205,8.14583333 10.9791667,8.3045 10.9791667,8.5 C10.9791667,8.6955 10.8205,8.85416667 10.625,8.85416667 Z" id="Shape"></path>
                        </g>
                    </g>
                </g>
            </g>
        </g>
    </g>
</svg>