<?xml version="1.0" encoding="UTF-8"?>
<svg width="22px" height="17px" viewBox="0 0 22 17" version="1.1" xmlns="http://www.w3.org/2000/svg" xmlns:xlink="http://www.w3.org/1999/xlink">
    <!-- Generator: Sketch 41 (35326) - http://www.bohemiancoding.com/sketch -->
    <title>Combined Shape</title>
    <desc>Created with Sketch.</desc>
    <defs></defs>
    <g id="Page-1" stroke="none" stroke-width="1" fill="none" fill-rule="evenodd">
        <g id="Home-Mobile" transform="translate(-332.000000, -20.000000)" fill="#000000">
            <g id="panel-1">
                <g id="NAV" transform="translate(24.000000, 19.000000)">
                    <g id="nav" transform="translate(319.000000, 9.500000) scale(-1, 1) translate(-319.000000, -9.500000) translate(308.000000, 1.000000)">
                        <path d="M1,2.05 L13.8302734,2.05 C14.3825582,2.05 14.8302734,1.60228475 14.8302734,1.05 C14.8302734,0.49771525 14.3825582,0.05 13.8302734,0.05 L1,0.05 C0.44771525,0.05 0,0.49771525 0,1.05 C0,1.60228475 0.44771525,2.05 1,2.05 Z M1,9.4 L20.9582031,9.4 C21.5104879,9.4 21.9582031,8.95228475 21.9582031,8.4 C21.9582031,7.84771525 21.5104879,7.4 20.9582031,7.4 L1,7.4 C0.44771525,7.4 0,7.84771525 0,8.4 C0,8.95228475 0.44771525,9.4 1,9.4 Z M1,16.75 L11.2795,16.75 C11.8317847,16.75 12.2795,16.3022847 12.2795,15.75 C12.2795,15.1977153 11.8317847,14.75 11.2795,14.75 L1,14.75 C0.44771525,14.75 0,15.1977153 0,15.75 C0,16.3022847 0.44771525,16.75 1,16.75 Z" id="Combined-Shape"></path>
                    </g>
                </g>
            </g>
        </g>
    </g>
</svg>