<?xml version="1.0" encoding="UTF-8" standalone="no"?>
<svg width="12px" height="12px" viewBox="0 0 12 12" version="1.1" xmlns="http://www.w3.org/2000/svg" xmlns:xlink="http://www.w3.org/1999/xlink">
    <!-- Generator: Sketch 3.7.1 (28215) - http://www.bohemiancoding.com/sketch -->
    <title>Fill 1</title>
    <desc>Created with Sketch.</desc>
    <defs></defs>
    <g id="HOME_(flight+hotel)_desktop_allstates" stroke="none" stroke-width="1" fill="none" fill-rule="evenodd">
        <g id="-STEP1_5" transform="translate(-420.000000, -330.000000)" fill="#010201">
            <path d="M427.308,336.0337 L431.785,331.5287 C432.123,331.1787 432.123,330.6117 431.785,330.2627 C431.446,329.9127 430.897,329.9127 430.559,330.2627 L426.032,334.8017 L421.505,330.2627 C421.336,330.0877 421.114,329.9997 420.892,329.9997 C420.67,329.9997 420.449,330.0877 420.279,330.2627 C419.941,330.6117 419.941,331.1787 420.279,331.5287 L424.714,335.9907 L420.253,340.4657 C419.915,340.8147 419.915,341.3787 420.253,341.7277 C420.592,342.0757 421.139,342.0757 421.477,341.7277 L425.99,337.2167 L430.502,341.7277 C430.671,341.9017 430.892,341.9887 431.114,341.9887 C431.335,341.9887 431.556,341.9017 431.726,341.7277 C432.063,341.3787 432.063,340.8147 431.726,340.4657 L427.308,336.0337 Z" id="Fill-1"></path>
        </g>
    </g>
</svg>