<?xml version="1.0" encoding="UTF-8"?>
<svg width="17px" height="19px" viewBox="0 0 17 19" version="1.1" xmlns="http://www.w3.org/2000/svg" xmlns:xlink="http://www.w3.org/1999/xlink">
    <!-- Generator: Sketch 48.2 (47327) - http://www.bohemiancoding.com/sketch -->
    <title>full-cart</title>
    <desc>Created with Sketch.</desc>
    <defs></defs>
    <g id="Home-Copy-3" stroke="none" stroke-width="1" fill="none" fill-rule="evenodd" transform="translate(-822.000000, -2327.000000)">
        <g id="Panel-3---Posts-Shoppable" transform="translate(-62.000000, 1997.000000)" fill="#F28F00" fill-rule="nonzero" stroke="#F28F00" stroke-width="0.3">
            <g id="TEXT" transform="translate(873.000000, 107.000000)">
                <g id="Drive-more-sales" transform="translate(0.000000, 211.000000)">
                    <g id="circle">
                        <g id="full-cart" transform="translate(11.000000, 13.000000)">
                            <g id="Group" transform="translate(0.000000, 1.416667)">
                                <path d="M13.4583333,15.5833333 C12.48225,15.5833333 11.6875,14.7885833 11.6875,13.8125 C11.6875,12.8364167 12.48225,12.0416667 13.4583333,12.0416667 C14.4344167,12.0416667 15.2291667,12.8364167 15.2291667,13.8125 C15.2291667,14.7885833 14.4344167,15.5833333 13.4583333,15.5833333 Z M13.4583333,12.75 C12.8725417,12.75 12.3958333,13.2267083 12.3958333,13.8125 C12.3958333,14.3982917 12.8725417,14.875 13.4583333,14.875 C14.044125,14.875 14.5208333,14.3982917 14.5208333,13.8125 C14.5208333,13.2267083 14.044125,12.75 13.4583333,12.75 Z" id="Shape"></path>
                                <path d="M6.375,15.5833333 C5.39891667,15.5833333 4.60416667,14.7885833 4.60416667,13.8125 C4.60416667,12.8364167 5.39891667,12.0416667 6.375,12.0416667 C7.35108333,12.0416667 8.14583333,12.8364167 8.14583333,13.8125 C8.14583333,14.7885833 7.35108333,15.5833333 6.375,15.5833333 Z M6.375,12.75 C5.78920833,12.75 5.3125,13.2267083 5.3125,13.8125 C5.3125,14.3982917 5.78920833,14.875 6.375,14.875 C6.96079167,14.875 7.4375,14.3982917 7.4375,13.8125 C7.4375,13.2267083 6.96079167,12.75 6.375,12.75 Z" id="Shape"></path>
                                <path d="M14.875,11.3333333 L6.700125,11.3333333 C5.52216667,11.3333333 4.50004167,10.495375 4.269125,9.34079167 L2.54291667,0.708333333 L0.708333333,0.708333333 C0.512833333,0.708333333 0.354166667,0.549666667 0.354166667,0.354166667 C0.354166667,0.158666667 0.512833333,0 0.708333333,0 L2.83333333,0 C3.00191667,0 3.147125,0.119 3.18041667,0.28475 L4.964,9.20125 C5.12904167,10.0264583 5.858625,10.625 6.700125,10.625 L14.875,10.625 C15.0705,10.625 15.2291667,10.7836667 15.2291667,10.9791667 C15.2291667,11.1746667 15.0705,11.3333333 14.875,11.3333333 Z" id="Shape"></path>
                                <path d="M14.3324167,8.5 L4.60416667,8.5 C4.40866667,8.5 4.25,8.34133333 4.25,8.14583333 C4.25,7.95033333 4.40866667,7.79166667 4.60416667,7.79166667 L14.3324167,7.79166667 C14.8672083,7.79166667 15.3205417,7.39145833 15.387125,6.86091667 L15.89075,2.83333333 L3.54166667,2.83333333 C3.34616667,2.83333333 3.1875,2.67466667 3.1875,2.47916667 C3.1875,2.28366667 3.34616667,2.125 3.54166667,2.125 L16.2916667,2.125 C16.3936667,2.125 16.49,2.16891667 16.5572917,2.24470833 C16.6245833,2.3205 16.65575,2.4225 16.643,2.52308333 L16.0897917,6.94875 C15.9792917,7.83345833 15.2235,8.5 14.3324167,8.5 Z" id="Shape"></path>
                            </g>
                            <path d="M9.91666667,4.25 C9.826,4.25 9.73533333,4.21529167 9.66591667,4.14658333 L6.375,0.854958333 L4.75079167,2.47916667 L5.91670833,3.64508333 C6.05483333,3.78320833 6.05483333,4.00775 5.91670833,4.145875 C5.77858333,4.284 5.55404167,4.284 5.41591667,4.145875 L3.99925,2.72920833 C3.861125,2.59108333 3.861125,2.36654167 3.99925,2.22841667 L6.12425,0.103416667 C6.262375,-0.0347083333 6.48691667,-0.0347083333 6.62504167,0.103416667 L10.1667083,3.64508333 C10.3048333,3.78320833 10.3048333,4.00775 10.1667083,4.145875 C10.098,4.21529167 10.0073333,4.25 9.91666667,4.25 Z" id="Shape"></path>
                            <path d="M12.0416667,4.25 C11.8461667,4.25 11.6875,4.09133333 11.6875,3.89583333 L11.6875,0.708333333 L9.5625,0.708333333 L9.5625,3.1875 C9.5625,3.383 9.40383333,3.54166667 9.20833333,3.54166667 C9.01283333,3.54166667 8.85416667,3.383 8.85416667,3.1875 L8.85416667,0.354166667 C8.85416667,0.158666667 9.01283333,0 9.20833333,0 L12.0416667,0 C12.2371667,0 12.3958333,0.158666667 12.3958333,0.354166667 L12.3958333,3.89583333 C12.3958333,4.09133333 12.2371667,4.25 12.0416667,4.25 Z" id="Shape"></path>
                            <path d="M14.116375,4.25 C14.0257083,4.25 13.9350417,4.21529167 13.865625,4.14658333 C13.7275,4.00845833 13.7275,3.78391667 13.865625,3.64579167 L14.9033333,2.60808333 C15.1137083,2.39841667 15.2291667,2.11933333 15.2291667,1.82183333 C15.2291667,1.52433333 15.1137083,1.24595833 14.9033333,1.03558333 C14.469125,0.601375 13.763625,0.601375 13.330125,1.03416667 L12.2924167,2.071875 C12.1542917,2.21 11.92975,2.21 11.791625,2.071875 C11.6535,1.93375 11.6535,1.70920833 11.791625,1.57108333 L12.8293333,0.533375 C13.5390833,-0.176375 14.6936667,-0.176375 15.4034167,0.533375 C15.7476667,0.878333333 15.9375,1.33520833 15.9375,1.821125 C15.9375,2.30704167 15.7476667,2.764625 15.404125,3.10816667 L14.3664167,4.145875 C14.2977083,4.21529167 14.2070417,4.25 14.116375,4.25 Z" id="Shape"></path>
                        </g>
                    </g>
                </g>
            </g>
        </g>
    </g>
</svg>