<?xml version="1.0" encoding="UTF-8"?>
<svg width="41px" height="41px" viewBox="0 0 41 41" version="1.1" xmlns="http://www.w3.org/2000/svg" xmlns:xlink="http://www.w3.org/1999/xlink">
    <!-- Generator: Sketch 48.2 (47327) - http://www.bohemiancoding.com/sketch -->
    <title>circle</title>
    <desc>Created with Sketch.</desc>
    <defs></defs>
    <g id="Home-Copy-3" stroke="none" stroke-width="1" fill="none" fill-rule="evenodd" transform="translate(-119.000000, -1262.000000)">
        <g id="Panel-2---Examples" transform="translate(119.000000, 895.000000)">
            <g id="TEXT">
                <g id="Place-it-anywhere" transform="translate(0.000000, 367.000000)">
                    <g id="circle">
                        <circle id="Oval-2" fill-opacity="0.699999988" fill="#FFF5E8" cx="20.5" cy="20.5" r="20.5"></circle>
                        <g id="app-window" transform="translate(12.000000, 13.000000)" fill="#F28F00" fill-rule="nonzero" stroke="#F28F00" stroke-width="0.3">
                            <path d="M14.3333333,0 L1.66666667,0 C0.748,0 0,0.714 0,1.59090909 L0,12.4090909 C0,13.286 0.748,14 1.66666667,14 L14.3333333,14 C15.252,14 16,13.286 16,12.4090909 L16,1.59090909 C16,0.714 15.252,0 14.3333333,0 Z M1.66666667,0.636363636 L14.3333333,0.636363636 C14.8846667,0.636363636 15.3333333,1.06463636 15.3333333,1.59090909 L15.3333333,2.54545455 L0.666666667,2.54545455 L0.666666667,1.59090909 C0.666666667,1.06463636 1.11533333,0.636363636 1.66666667,0.636363636 Z M14.3333333,13.3636364 L1.66666667,13.3636364 C1.11533333,13.3636364 0.666666667,12.9353636 0.666666667,12.4090909 L0.666666667,3.18181818 L15.3333333,3.18181818 L15.3333333,12.4090909 C15.3333333,12.9353636 14.8846667,13.3636364 14.3333333,13.3636364 Z" id="Shape"></path>
                            <ellipse id="Oval" cx="1.66666667" cy="1.59090909" rx="1" ry="1"></ellipse>
                            <ellipse id="Oval" cx="3" cy="1.59090909" rx="1" ry="1"></ellipse>
                            <ellipse id="Oval" cx="4.33333333" cy="1.59090909" rx="1" ry="1"></ellipse>
                        </g>
                        <path d="M23.3,20.8 C23.7176,20.8 23.9414,20.845 24.0476,20.9518 C24.1544,21.0586 24.2,21.2824 24.2,21.7 C24.2,21.8656 24.3344,22 24.5,22 C24.6656,22 24.8,21.8656 24.8,21.7 C24.8,21.2824 24.845,21.058 24.9518,20.9518 C25.0586,20.8456 25.2824,20.8 25.7,20.8 C25.8656,20.8 26,20.6656 26,20.5 C26,20.3344 25.8656,20.2 25.7,20.2 C25.2824,20.2 25.0586,20.155 24.9524,20.0482 C24.8456,19.9414 24.8,19.7176 24.8,19.3 C24.8,19.1344 24.6656,19 24.5,19 C24.3344,19 24.2,19.1344 24.2,19.3 C24.2,19.7176 24.155,19.9414 24.0482,20.0476 C23.9414,20.1544 23.7176,20.2 23.3,20.2 C23.1344,20.2 23,20.3344 23,20.5 C23,20.6656 23.1344,20.8 23.3,20.8 Z" id="Shape" stroke="#F28F00" stroke-width="0.3" fill="#F28F00" fill-rule="nonzero"></path>
                        <path d="M15.3,22.8 C15.7176,22.8 15.9414,22.845 16.0476,22.9518 C16.1544,23.0586 16.2,23.2824 16.2,23.7 C16.2,23.8656 16.3344,24 16.5,24 C16.6656,24 16.8,23.8656 16.8,23.7 C16.8,23.2824 16.845,23.058 16.9518,22.9518 C17.0586,22.8456 17.2824,22.8 17.7,22.8 C17.8656,22.8 18,22.6656 18,22.5 C18,22.3344 17.8656,22.2 17.7,22.2 C17.2824,22.2 17.0586,22.155 16.9524,22.0482 C16.8456,21.9414 16.8,21.7176 16.8,21.3 C16.8,21.1344 16.6656,21 16.5,21 C16.3344,21 16.2,21.1344 16.2,21.3 C16.2,21.7176 16.155,21.9414 16.0482,22.0476 C15.9414,22.1544 15.7176,22.2 15.3,22.2 C15.1344,22.2 15,22.3344 15,22.5 C15,22.6656 15.1344,22.8 15.3,22.8 Z" id="Shape" stroke="#F28F00" stroke-width="0.3" fill="#F28F00" fill-rule="nonzero"></path>
                        <path d="M20.3,18.8 C20.7176,18.8 20.942,18.845 21.0482,18.9518 C21.1544,19.0586 21.2,19.2824 21.2,19.7 C21.2,19.8656 21.3344,20 21.5,20 C21.6656,20 21.8,19.8656 21.8,19.7 C21.8,19.2818 21.845,19.058 21.9518,18.9518 C22.0586,18.8456 22.2824,18.8 22.7,18.8 C22.8656,18.8 23,18.6656 23,18.5 C23,18.3344 22.8656,18.2 22.7,18.2 C22.2824,18.2 22.0586,18.155 21.9524,18.0482 C21.8456,17.9414 21.8,17.7176 21.8,17.3 C21.8,17.1344 21.6656,17 21.5,17 C21.3344,17 21.2,17.1344 21.2,17.3 C21.2,17.7176 21.155,17.9414 21.0482,18.0476 C20.9414,18.1544 20.7176,18.2 20.3,18.2 C20.1344,18.2 20,18.3344 20,18.5 C20,18.6656 20.1344,18.8 20.3,18.8 Z" id="Shape" stroke="#F28F00" stroke-width="0.3" fill="#F28F00" fill-rule="nonzero"></path>
                    </g>
                </g>
            </g>
        </g>
    </g>
</svg>