<?xml version="1.0" encoding="UTF-8"?>
<svg width="20px" height="29px" viewBox="0 0 20 29" version="1.1" xmlns="http://www.w3.org/2000/svg" xmlns:xlink="http://www.w3.org/1999/xlink">
    <!-- Generator: Sketch 41 (35326) - http://www.bohemiancoding.com/sketch -->
    <title>Clip 15</title>
    <desc>Created with Sketch.</desc>
    <defs></defs>
    <g id="Page-1" stroke="none" stroke-width="1" fill="none" fill-rule="evenodd">
        <g id="Results" transform="translate(-124.000000, -3556.000000)" fill="#FFFFFF">
            <g id="footer" transform="translate(0.000000, 3498.000000)">
                <g id="logo" transform="translate(124.000000, 58.000000)">
                    <path d="M0.944358974,8.01682861 C0.944358974,12.6854926 4.67380567,15.0592443 8.40325236,16.5623347 C11.7350742,17.9077463 13.4421188,19.2908637 13.4421188,21.3098381 C13.4421188,23.010027 11.8944669,24.3554386 9.83264507,24.3554386 C9.63383266,24.3554386 9.43330634,24.3400135 9.23106613,24.314305 C7.48117409,24.0109447 5.50161943,22.8643455 4.78520918,22.425587 L4.75950067,22.4101619 C4.65152497,22.3450337 4.57268556,22.2953306 4.53326586,22.271336 C4.52983806,22.2696221 4.52641026,22.2679082 4.52298246,22.2679082 L3.7825776,21.8154386 L3.16728745,22.7392308 C3.16214575,22.7460864 3.15529015,22.752942 3.15014845,22.7615115 L3.03360324,22.9397571 L1.70190283,24.9775843 L1.12774629,25.8396761 L2.43202429,26.6863428 L2.43031039,26.6846289 C3.34896086,27.2724966 5.0988529,28.2219973 7.33720648,28.6624696 C7.33549258,28.6658974 7.33377868,28.6676113 7.33377868,28.6693252 C7.50345479,28.7001754 7.6799865,28.7293117 7.85823212,28.7533063 C8.49923077,28.8544265 9.17450742,28.9109852 9.87892038,28.9024157 C9.91662618,28.9024157 9.95261808,28.9058435 9.98860999,28.9058435 C15.5862078,28.9058435 19.1168421,25.1472605 19.1168421,21.0733198 C19.1168421,15.9693252 14.6726991,13.674413 10.8232794,12.1319028 C7.6097166,10.8259109 6.14261808,9.55933873 6.14261808,7.69975709 C6.14261808,6.43489879 7.37148448,4.93009447 9.63211876,4.93009447 C11.5345479,4.93009447 14.0676923,6.43318489 14.8989339,6.95078273 L14.9246424,6.96620783 C15.0326181,7.03304993 15.1097436,7.08275304 15.1491633,7.10674764 C15.1525911,7.11017544 15.1560189,7.11017544 15.1594467,7.11360324 L15.8964238,7.57121457 L16.5202834,6.6559919 C16.5254251,6.6474224 16.5322807,6.6405668 16.5374224,6.6319973 L16.6539676,6.45717949 L16.6556815,6.45546559 L18.0096626,4.43134953 L18.5923887,3.57439946 L17.2949663,2.71573549 L17.2966802,2.71744939 C16.0609582,1.90677463 13.3135762,0.420823212 9.87206478,0.420823212 C3.56319838,0.420823212 0.944358974,4.49647773 0.944358974,8.01682861 Z" id="Clip-15"></path>
                </g>
            </g>
        </g>
    </g>
</svg>