<?xml version="1.0" encoding="utf-8"?>
<!-- Generator: Adobe Illustrator 19.2.0, SVG Export Plug-In . SVG Version: 6.00 Build 0)  -->
<svg version="1.1" id="Слой_1" xmlns="http://www.w3.org/2000/svg" xmlns:xlink="http://www.w3.org/1999/xlink" x="0px" y="0px"
	 viewBox="0 0 20 29" style="enable-background:new 0 0 20 29;" xml:space="preserve">
<title>Clip 15</title>
<desc>Created with Sketch.</desc>
<g id="Page-1">
	<g id="Results" transform="translate(-124.000000, -3556.000000)">
		<g id="footer" transform="translate(0.000000, 3498.000000)">
			<g id="logo" transform="translate(124.000000, 58.000000)">
				<path id="Clip-15" d="M0.9,8c0,4.7,3.7,7,7.5,8.5c3.3,1.3,5,2.7,5,4.7c0,1.7-1.5,3-3.6,3c-0.2,0-0.4,0-0.6,0
					c-1.7-0.3-3.7-1.4-4.4-1.9l0,0c-0.1-0.1-0.2-0.1-0.2-0.1c0,0,0,0,0,0l-0.7-0.5l-0.6,0.9c0,0,0,0,0,0L3,22.9l-1.3,2l-0.6,0.9
					l1.3,0.8l0,0c0.9,0.6,2.7,1.5,4.9,2c0,0,0,0,0,0c0.2,0,0.3,0.1,0.5,0.1c0.6,0.1,1.3,0.2,2,0.1c0,0,0.1,0,0.1,0
					c5.6,0,9.1-3.8,9.1-7.8c0-5.1-4.4-7.4-8.3-8.9c-3.2-1.3-4.7-2.6-4.7-4.4c0-1.3,1.2-2.8,3.5-2.8c1.9,0,4.4,1.5,5.3,2l0,0
					C15,7,15.1,7.1,15.1,7.1c0,0,0,0,0,0l0.7,0.5l0.6-0.9c0,0,0,0,0,0l0.1-0.2l0,0l1.4-2l0.6-0.9l-1.3-0.9l0,0
					c-1.2-0.8-4-2.3-7.4-2.3C3.6,0.4,0.9,4.5,0.9,8z"/>
			</g>
		</g>
	</g>
</g>
</svg>
