<?xml version="1.0" encoding="UTF-8"?>
<svg width="126px" height="20px" viewBox="0 0 126 20" version="1.1" xmlns="http://www.w3.org/2000/svg" xmlns:xlink="http://www.w3.org/1999/xlink">
    <!-- Generator: Sketch 48.2 (47327) - http://www.bohemiancoding.com/sketch -->
    <title>logo</title>
    <desc>Created with Sketch.</desc>
    <defs>
        <path d="M9.75114912,0.925763158 L9.46038596,0.925763158 L9.16182456,0.925763158 L9.04262281,1.18199123 L8.59812281,2.14228947 C8.59589474,2.14674561 8.59255263,2.15008772 8.59032456,2.15454386 L0.993719298,18.5464561 L0.579298246,19.4387982 L1.34129825,19.4387982 L1.34352632,19.4387982 L1.48166667,19.4387982 L3.61615789,19.4387982 L4.14755263,19.4387982 L4.5530614,18.5464561 L4.54414912,18.5464561 L5.65707018,16.1011491 L13.4764825,16.1011491 L14.7576228,18.9174298 C14.7620789,18.9252281 14.7654211,18.9319123 14.7709912,18.9397105 L14.9971404,19.4387982 L15.5162807,19.4387982 L15.7112368,19.4387982 L17.7922544,19.4387982 L17.8145351,19.4387982 L18.5497982,19.4387982 L18.2467807,18.7770614 L10.6345789,2.19353509 L10.6345789,2.19130702 L10.1700263,1.18199123 L10.0519386,0.925763158 L9.75114912,0.925763158 Z M9.50160526,7.46960526 L9.57958772,7.46960526 L12.1953421,13.206886 L6.93821053,13.206886 L9.50160526,7.46960526 Z" id="path-1"></path>
        <path d="M1.00820175,0.925763158 L0.857807018,0.925763158 L0.360947368,0.925763158 L0.360947368,1.42150877 L0.360947368,1.78245614 L0.360947368,18.3058246 L0.360947368,18.6845965 L0.360947368,19.4387982 L3.76098246,19.4387982 L3.76098246,18.6868246 L3.76098246,18.6845965 L3.76098246,12.5562895 L7.03067544,12.5562895 C10.2201579,12.5562895 12.8626491,9.92271053 12.8626491,6.68866667 C12.8626491,3.5337193 10.2201579,0.925763158 7.0039386,0.925763158 L1.00820175,0.925763158 Z M3.76098246,4.13307018 L6.7945,4.13307018 C8.25945614,4.13307018 9.48823684,5.22816667 9.48823684,6.66304386 C9.48823684,8.20152632 8.25945614,9.37460526 6.7945,9.37460526 L3.76098246,9.37460526 L3.76098246,4.13307018 Z" id="path-3"></path>
        <path d="M0.691815789,0.925763158 L0.541421053,0.925763158 L0.0445614035,0.925763158 L0.0445614035,1.42150877 L0.0445614035,1.78245614 L0.0445614035,18.3058246 L0.0445614035,18.6845965 L0.0445614035,19.4387982 L3.44348246,19.4387982 L3.44348246,18.6868246 L3.44348246,18.6845965 L3.44348246,12.5562895 L6.71317544,12.5562895 C9.90377193,12.5562895 12.5462632,9.92271053 12.5462632,6.68866667 C12.5462632,3.5337193 9.90377193,0.925763158 6.68755263,0.925763158 L0.691815789,0.925763158 Z M3.44348246,4.13307018 L6.47811404,4.13307018 C7.94307018,4.13307018 9.17185088,5.22816667 9.17185088,6.66304386 C9.17185088,8.20152632 7.94307018,9.37460526 6.47811404,9.37460526 L3.44348246,9.37460526 L3.44348246,4.13307018 Z" id="path-5"></path>
        <path d="M0.806561404,10.2067895 C0.806561404,15.3502895 4.95857018,19.4387982 10.1165526,19.4387982 C12.3646754,19.4387982 14.5381579,18.6723421 16.2749386,17.0447368 L16.2749386,17.0480789 L16.3306404,16.9934912 C16.3484649,16.9767807 16.3662895,16.9611842 16.383,16.9444737 C16.3885702,16.9400175 16.3919123,16.9333333 16.3974825,16.9277632 L16.7406053,16.5902105 L16.2816228,16.1189737 L14.8645702,14.6607018 L14.5225614,14.3042105 L14.1404474,14.6239386 C13.0609474,15.4873158 11.7552982,16.0699561 10.2190439,16.0699561 C6.91815789,16.0699561 4.44165789,13.3439123 4.44165789,10.1299211 C4.44165789,6.89030702 6.89253509,4.13752632 10.1934211,4.13752632 C11.6294123,4.13752632 13.0642895,4.69788596 14.1449035,5.63924561 L14.5147632,5.96231579 L14.8857368,5.57797368 L16.383,4.03503509 C16.3874561,4.03169298 16.3896842,4.02612281 16.3941404,4.0227807 L16.7461754,3.65737719 L16.3662895,3.3242807 C16.3629474,3.32205263 16.3607193,3.31759649 16.3573772,3.31425439 C16.3195,3.28194737 16.2816228,3.25075439 16.2448596,3.21733333 L16.1100614,3.09924561 L16.1100614,3.10147368 C14.4256404,1.6732807 12.5997368,0.923535088 10.1165526,0.923535088 C4.95857018,0.923535088 0.806561404,5.06440351 0.806561404,10.2067895 Z" id="path-7"></path>
        <path d="M0.613833333,5.8609386 C0.613833333,8.89557018 3.03797368,10.4385088 5.46211404,11.4155175 C7.62779825,12.2900351 8.73737719,13.1890614 8.73737719,14.5013947 C8.73737719,15.6065175 7.73140351,16.4810351 6.3912193,16.4810351 C6.26199123,16.4810351 6.13164912,16.4710088 6.00019298,16.4542982 C4.86276316,16.257114 3.57605263,15.5118246 3.11038596,15.2266316 L3.09367544,15.2166053 C3.02349123,15.1742719 2.97224561,15.1419649 2.94662281,15.1263684 C2.94439474,15.1252544 2.94216667,15.1241404 2.9399386,15.1241404 L2.45867544,14.8300351 L2.05873684,15.4305 C2.05539474,15.4349561 2.0509386,15.4394123 2.04759649,15.4449825 L1.97184211,15.5608421 L1.10623684,16.8854298 L0.733035088,17.4457895 L1.58081579,17.9961228 L1.57970175,17.9950088 C2.17682456,18.3771228 3.31425439,18.9942982 4.76918421,19.2806053 C4.76807018,19.2828333 4.76695614,19.2839474 4.76695614,19.2850614 C4.87724561,19.305114 4.99199123,19.3240526 5.10785088,19.3396491 C5.5245,19.4053772 5.96342982,19.4421404 6.42129825,19.4365702 C6.44580702,19.4365702 6.46920175,19.4387982 6.49259649,19.4387982 C10.1310351,19.4387982 12.4259474,16.9957193 12.4259474,14.3476579 C12.4259474,11.0300614 9.53725439,9.53836842 7.03513158,8.53573684 C4.94631579,7.68684211 3.99270175,6.86357018 3.99270175,5.65484211 C3.99270175,4.83268421 4.79146491,3.8545614 6.26087719,3.8545614 C7.49745614,3.8545614 9.144,4.83157018 9.68430702,5.16800877 L9.70101754,5.17803509 C9.77120175,5.22148246 9.82133333,5.25378947 9.84695614,5.26938596 C9.84918421,5.27161404 9.85141228,5.27161404 9.85364035,5.27384211 L10.3326754,5.57128947 L10.7381842,4.97639474 C10.7415263,4.97082456 10.7459825,4.96636842 10.7493246,4.96079825 L10.8250789,4.84716667 L10.826193,4.84605263 L11.7062807,3.53037719 L12.0850526,2.97335965 L11.2417281,2.41522807 L11.2428421,2.41634211 C10.4396228,1.88940351 8.65382456,0.923535088 6.41684211,0.923535088 C2.31607895,0.923535088 0.613833333,3.57271053 0.613833333,5.8609386 Z" id="path-9"></path>
    </defs>
    <g id="Home-Copy-3" stroke="none" stroke-width="1" fill="none" fill-rule="evenodd" transform="translate(-110.000000, -54.000000)">
        <g id="header" transform="translate(110.000000, 37.000000)">
            <g id="logo" transform="translate(0.000000, 16.000000)">
                <g id="Group-3" transform="translate(38.991228, 0.805002)">
                    <mask id="mask-2" fill="white">
                        <use xlink:href="#path-1"></use>
                    </mask>
                    <g id="Clip-2"></g>
                    <polygon id="Fill-1" fill="#000000" mask="url(#mask-2)" points="-0.0334210526 20.0526316 19.1636316 20.0526316 19.1636316 0.311929825 -0.0334210526 0.311929825"></polygon>
                </g>
                <g id="Group-6" transform="translate(62.385965, 0.805002)">
                    <mask id="mask-4" fill="white">
                        <use xlink:href="#path-3"></use>
                    </mask>
                    <g id="Clip-5"></g>
                    <polygon id="Fill-4" fill="#000000" mask="url(#mask-4)" points="-0.252885965 20.0526316 13.4753684 20.0526316 13.4753684 0.311929825 -0.252885965 0.311929825"></polygon>
                </g>
                <g id="Group-9" transform="translate(81.324561, 0.805002)">
                    <mask id="mask-6" fill="white">
                        <use xlink:href="#path-5"></use>
                    </mask>
                    <g id="Clip-8"></g>
                    <polygon id="Fill-7" fill="#000000" mask="url(#mask-6)" points="-0.56927193 20.0526316 13.1589825 20.0526316 13.1589825 0.311929825 -0.56927193 0.311929825"></polygon>
                </g>
                <polygon id="Fill-10" fill="#000000" points="99.9904421 1.7304307 99.9904421 2.48574649 99.9904421 2.98706228 99.9904421 18.9879482 99.9904421 19.7488342 99.9904421 20.2434658 100.487302 20.2434658 102.920354 20.2434658 103.4161 20.2434658 103.4161 19.7488342 103.4161 18.9879482 103.4161 2.98706228 103.4161 2.48574649 103.4161 1.7304307"></polygon>
                <g id="Group-13" transform="translate(109.175439, 0.805002)">
                    <mask id="mask-8" fill="white">
                        <use xlink:href="#path-7"></use>
                    </mask>
                    <g id="Clip-12"></g>
                    <polygon id="Fill-11" fill="#000000" mask="url(#mask-8)" points="0.19272807 20.0526316 17.3600088 20.0526316 17.3600088 0.310815789 0.19272807 0.310815789"></polygon>
                </g>
                <g id="Group-16" transform="translate(0.000000, 0.805002)">
                    <mask id="mask-10" fill="white">
                        <use xlink:href="#path-9"></use>
                    </mask>
                    <g id="Clip-15"></g>
                    <polygon id="Fill-14" fill="#000000" mask="url(#mask-10)" points="0 20.0515175 13.0386667 20.0515175 13.0386667 0.309701754 0 0.309701754"></polygon>
                </g>
                <polygon id="Fill-17" fill="#000000" points="18.9116368 1.72742281 18.9116368 2.19754561 18.9116368 2.35016842 18.9116368 19.3692825 18.9116368 19.7491684 18.9116368 20.2438 19.4084965 20.2438 21.7891895 20.2438 22.2860491 20.2438 22.2860491 19.7491684 22.2860491 19.3692825 22.2860491 8.53529123 22.3116719 8.53529123 33.0052947 20.2438 34.1783737 20.2438 34.3131719 20.2438 34.3688737 20.2438 34.3688737 20.0354754 34.3688737 19.9753175 34.3688737 3.04978246 34.3688737 2.48496667 34.3688737 1.73076491 30.9677246 1.73076491 30.9677246 3.04978246 30.9688386 3.04978246 30.9688386 13.2543439 30.9421018 13.2543439 20.0624351 1.72853684 20.0624351 1.72742281"></polygon>
            </g>
        </g>
    </g>
</svg>