<?xml version="1.0" encoding="UTF-8"?><!DOCTYPE svg PUBLIC "-//W3C//DTD SVG 1.1//EN" "http://www.w3.org/Graphics/SVG/1.1/DTD/svg11.dtd"><svg xmlns="http://www.w3.org/2000/svg" xmlns:xlink="http://www.w3.org/1999/xlink"><defs>
        <path d="M9.751.926h-.59l-.118.256-.445.96-.008.013L.994 18.546l-.415.893h3.569l.405-.893h-.009l1.113-2.445h7.82l1.28 2.816.014.023.226.499h3.553l-.303-.662-7.612-16.583V2.19l-.465-1.009-.118-.256h-.3zm-.25 6.544h.079l2.615 5.737H6.938L9.502 7.47z" id="a"/>
        <path d="M1.008.926H.361V19.439h3.4V12.556h3.27c3.19 0 5.832-2.633 5.832-5.867 0-3.155-2.643-5.763-5.86-5.763H1.009zm2.753 3.207h3.034c1.464 0 2.693 1.095 2.693 2.53a2.691 2.691 0 0 1-2.693 2.712H3.76V4.133z" id="c"/>
        <path d="M.692.926H.045V19.439h3.398V12.556h3.27c3.19 0 5.833-2.633 5.833-5.867 0-3.155-2.642-5.763-5.858-5.763H.692zm2.751 3.207h3.035c1.465 0 2.694 1.095 2.694 2.53a2.691 2.691 0 0 1-2.694 2.712H3.443V4.133z" id="e"/>
        <path d="M.807 10.207c0 5.143 4.152 9.232 9.31 9.232 2.248 0 4.421-.767 6.158-2.394v.003l.056-.055.052-.049c.006-.004.009-.01.014-.016l.344-.338-.46-.471-1.416-1.458-.342-.357-.383.32c-1.08.863-2.385 1.446-3.921 1.446-3.3 0-5.777-2.726-5.777-5.94 0-3.24 2.45-5.992 5.751-5.992 1.436 0 2.871.56 3.952 1.501l.37.323.37-.384 1.498-1.543.011-.012.352-.366-.38-.333-.009-.01c-.037-.032-.075-.063-.112-.097L16.11 3.1v.002C14.426 1.673 12.6.924 10.117.924c-5.158 0-9.31 4.14-9.31 9.283z" id="g"/>
        <path d="M.614 5.86c0 3.036 2.424 4.579 4.848 5.556 2.166.874 3.275 1.773 3.275 3.085 0 1.106-1.006 1.98-2.346 1.98-.129 0-.26-.01-.39-.027-1.138-.197-2.425-.942-2.89-1.227l-.017-.01-.147-.09a.016.016 0 0 0-.007-.003l-.481-.294-.4.6-.011.015-.076.116-.866 1.324-.373.56.848.551-.001-.001c.597.382 1.734 1 3.19 1.286l-.003.004c.11.02.225.04.34.055a7.81 7.81 0 0 0 1.314.097l.072.002c3.638 0 5.933-2.443 5.933-5.091 0-3.318-2.889-4.81-5.39-5.812-2.09-.85-3.043-1.672-3.043-2.881 0-.822.798-1.8 2.268-1.8 1.236 0 2.883.977 3.423 1.313l.017.01c.07.043.12.076.146.091.002.003.004.003.007.005l.479.297.405-.595.011-.015.076-.114h.001l.88-1.317.38-.557-.844-.558v.001C10.44 1.89 8.655.924 6.418.924 2.317.924.614 3.573.614 5.86z" id="i"/>
    </defs><symbol id="icon-altolabs" viewBox="0 0 100 10">
    <title>
        altolabs
    </title>
    <path d="M14.835.11V10h5.886V7.763h-3.65V.11h-2.236zm39.794 0V10h5.77V7.763h-3.65V.11h-2.12zm-29.316 0v2.237h2.826V10h2.119V2.347h2.826V.11h-7.771zM43.209 10c2.708 0 4.945-2.237 4.945-4.945S45.917.11 43.209.11s-4.945 2.237-4.945 4.945S40.5 10 43.209 10zM40.5 5.055c0-1.53 1.177-2.708 2.708-2.708 1.53 0 2.708 1.178 2.708 2.708 0 1.53-1.178 2.708-2.708 2.708-1.53.118-2.708-1.177-2.708-2.708zM80.649 3.29V10h4.473c1.767 0 3.297-1.53 3.297-3.297 0-1.06-.47-1.883-1.177-2.59.353-.47.588-.942.588-1.53 0-1.295-1.06-2.473-2.472-2.473h-4.71v3.18zm4.709-.942c.118 0 .236.118.236.236 0 .117 0 .117-.118.235-.236.236-1.413.824-2.708 1.295V2.347h2.59zm-.236 5.534h-2.354V6.586c.706-.236 1.413-.589 2.237-.942h.117c.59 0 1.178.47 1.178 1.177 0 .471-.589 1.06-1.178 1.06zM95.72 5.644c.824.47 1.883 1.177 1.883 1.648 0 .353-.235.589-.588.589h-3.061V10h3.06c1.649 0 2.826-1.178 2.826-2.709 0-1.766-1.53-2.708-2.943-3.532-.47-.353-1.413-.824-1.53-1.177 0-.118 0-.118.117-.236.236-.117.471-.117.471-.117h2.708V.11h-2.708c-1.177 0-2.826.824-2.826 2.59 0 1.413 1.413 2.237 2.59 2.944zM68.286 10l.354-.824h3.767l.353.824h2.355L70.405.11 65.697 10h2.59zM69.7 7.057l.942-1.884.942 1.884h-1.884zM2.943 9.176h3.768l.353.824H9.42L4.709.11 0 10h2.355l.588-.824zm.942-2.12l.942-1.883.942 1.884H3.885z" fill-rule="evenodd"/>
</symbol><symbol id="icon-app-window" viewBox="0 0 18 16">
    <title>
        Group 4
    </title>
    <g fill-rule="nonzero" stroke-width=".3">
        <g transform="translate(1 1)">
            <path d="M14.333 0H1.667C.748 0 0 .714 0 1.59v10.82C0 13.285.748 14 1.667 14h12.666c.919 0 1.667-.714 1.667-1.59V1.59C16 .715 15.252 0 14.333 0zM1.667.636h12.666c.552 0 1 .429 1 .955v.954H.667v-.954c0-.526.448-.955 1-.955zm12.666 12.728H1.667c-.552 0-1-.429-1-.955V3.182h14.666v9.227c0 .526-.448.955-1 .955z"/>
            <ellipse cx="1.667" cy="1.591" rx="1" ry="1"/>
            <ellipse cx="3" cy="1.591" rx="1" ry="1"/>
            <ellipse cx="4.333" cy="1.591" rx="1" ry="1"/>
        </g>
        <path d="M12.3 8.8c.418 0 .641.045.748.152.106.107.152.33.152.748a.3.3 0 0 0 .6 0c0-.418.045-.642.152-.748.107-.106.33-.152.748-.152a.3.3 0 0 0 0-.6c-.418 0-.641-.045-.748-.152-.106-.107-.152-.33-.152-.748a.3.3 0 0 0-.6 0c0 .418-.045.641-.152.748-.107.106-.33.152-.748.152a.3.3 0 0 0 0 .6z"/>
        <path d="M4.3 10.8c.418 0 .641.045.748.152.106.107.152.33.152.748a.3.3 0 0 0 .6 0c0-.418.045-.642.152-.748.107-.106.33-.152.748-.152a.3.3 0 0 0 0-.6c-.418 0-.641-.045-.748-.152-.106-.107-.152-.33-.152-.748a.3.3 0 0 0-.6 0c0 .418-.045.641-.152.748-.107.106-.33.152-.748.152a.3.3 0 0 0 0 .6z"/>
        <path d="M9.3 6.8c.418 0 .642.045.748.152.106.107.152.33.152.748a.3.3 0 0 0 .6 0c0-.418.045-.642.152-.748.107-.106.33-.152.748-.152a.3.3 0 0 0 0-.6c-.418 0-.641-.045-.748-.152-.106-.107-.152-.33-.152-.748a.3.3 0 0 0-.6 0c0 .418-.045.641-.152.748-.107.106-.33.152-.748.152a.3.3 0 0 0 0 .6z"/>
    </g>
</symbol><symbol id="icon-big-shopping" viewBox="0 0 17 19">
    <title>
        big-shopping
    </title>
    <g fill-rule="nonzero" stroke-width=".3">
        <path d="M7.083 18H.708a.354.354 0 0 1-.354-.354V9.854a.354.354 0 0 1 .709 0v7.438h5.666V9.854a.354.354 0 0 1 .708 0v7.792a.354.354 0 0 1-.354.354z"/>
        <path d="M1.77 10.208H.709a.355.355 0 0 1-.283-.566l1.063-1.417a.354.354 0 0 1 .567.425l-.638.85h.354a.354.354 0 0 1 0 .708z"/>
        <path d="M7.083 10.208H6.021a.354.354 0 0 1 0-.708h.354l-.638-.85a.355.355 0 0 1 .568-.425l1.062 1.417a.354.354 0 0 1-.284.566z"/>
        <path d="M4.958 10.208a.354.354 0 0 1-.354-.354v-1.77a.709.709 0 0 0-1.417 0v1.77a.354.354 0 0 1-.708 0v-1.77c0-.782.636-1.417 1.417-1.417s1.417.635 1.417 1.416v1.771a.354.354 0 0 1-.355.354z"/>
        <path d="M12.75 11.625a.354.354 0 0 1-.354-.354v-1.063a.709.709 0 0 0-1.417 0v1.063a.354.354 0 0 1-.708 0v-1.063c0-.781.635-1.416 1.416-1.416.782 0 1.417.635 1.417 1.416v1.063a.354.354 0 0 1-.354.354z"/>
        <path d="M16.292 16.583H7.083a.354.354 0 0 1-.354-.354v-5.666c0-.196.159-.355.354-.355h2.48a.354.354 0 0 1 0 .709H7.437v4.958h8.5v-4.958h-2.124a.354.354 0 0 1 0-.709h2.479c.195 0 .354.159.354.354v5.667a.354.354 0 0 1-.354.354z"/>
        <path d="M14.875 9.5a.354.354 0 0 1-.354-.354V3.833H6.729v3.188a.354.354 0 0 1-.708 0V3.479c0-.195.159-.354.354-.354h8.5c.195 0 .354.159.354.354v5.667a.354.354 0 0 1-.354.354z"/>
        <path d="M15.583 3.833H5.667a.354.354 0 0 1-.354-.354V1.354c0-.195.158-.354.354-.354h9.916c.196 0 .354.159.354.354V3.48a.354.354 0 0 1-.354.354zm-9.562-.708h9.208V1.708H6.021v1.417z"/>
        <path d="M10.625 8.083a.354.354 0 0 1-.354-.354V1.354a.354.354 0 0 1 .708 0V7.73a.354.354 0 0 1-.354.354z"/>
        <path d="M14.875 6.667h-8.5a.354.354 0 0 1 0-.709h8.5a.354.354 0 0 1 0 .709z"/>
        <path d="M10.625 9.854h-4.25a.354.354 0 0 1 0-.708h4.25a.354.354 0 0 1 0 .708z"/>
    </g>
</symbol><symbol id="icon-burger" viewBox="0 0 22 17">
    <title>
        Combined Shape
    </title>
    <path d="M21 2.05H8.17a1 1 0 1 1 0-2H21a1 1 0 1 1 0 2zm0 7.35H1.042a1 1 0 1 1 0-2H21a1 1 0 1 1 0 2zm0 7.35H10.72a1 1 0 0 1 0-2H21a1 1 0 0 1 0 2z" fill-rule="evenodd"/>
</symbol><symbol id="icon-close" viewBox="0 0 12 12">
    <title>
        Fill 1
    </title>
    <path d="M7.308 6.034l4.477-4.505a.917.917 0 0 0 0-1.266.847.847 0 0 0-1.226 0L6.032 4.802 1.505.262a.85.85 0 0 0-1.226 0 .917.917 0 0 0 0 1.267L4.714 5.99.253 10.466a.912.912 0 0 0 0 1.262.848.848 0 0 0 1.224 0L5.99 7.217l4.512 4.51a.85.85 0 0 0 1.224 0 .914.914 0 0 0 0-1.261L7.308 6.034z" fill-rule="evenodd"/>
</symbol><symbol id="icon-facebook" viewBox="0 0 10 19">
    <title>
        facebook
    </title>
    <path d="M9.766.157v2.946H8.014c-.64 0-1.071.134-1.295.402-.223.268-.335.67-.335 1.205v2.11h3.27l-.435 3.303H6.384v8.471H2.97v-8.47H.123V6.82H2.97V4.387c0-1.384.387-2.457 1.161-3.22C4.904.404 5.934.023 7.222.023c1.093 0 1.941.045 2.544.134z" fill-rule="evenodd"/>
</symbol><symbol id="icon-full-cart" viewBox="0 0 17 19">
    <title>
        full-cart
    </title>
    <g fill-rule="nonzero" stroke-width=".3">
        <path d="M13.458 18c-.976 0-1.77-.795-1.77-1.77 0-.977.794-1.772 1.77-1.772s1.771.795 1.771 1.771c0 .976-.795 1.771-1.77 1.771zm0-2.833c-.585 0-1.062.476-1.062 1.062 0 .586.477 1.063 1.062 1.063a1.064 1.064 0 0 0 0-2.125z"/>
        <path d="M6.375 18c-.976 0-1.77-.795-1.77-1.77 0-.977.794-1.772 1.77-1.772s1.77.795 1.77 1.771c0 .976-.794 1.771-1.77 1.771zm0-2.833c-.586 0-1.063.476-1.063 1.062a1.064 1.064 0 0 0 2.125 0c0-.586-.476-1.062-1.062-1.062z"/>
        <path d="M14.875 13.75H6.7c-1.178 0-2.2-.838-2.43-1.993L2.542 3.125H.708a.354.354 0 0 1 0-.708h2.125c.169 0 .314.119.347.284l1.784 8.917A1.775 1.775 0 0 0 6.7 13.042h8.175a.354.354 0 0 1 0 .708z"/>
        <path d="M14.332 10.917H4.604a.354.354 0 0 1 0-.709h9.728c.535 0 .989-.4 1.055-.93l.504-4.028H3.54a.354.354 0 0 1 0-.708h12.75a.355.355 0 0 1 .352.398l-.553 4.425a1.774 1.774 0 0 1-1.758 1.552z"/>
        <path d="M9.917 5.25a.356.356 0 0 1-.251-.103L6.375 1.855 4.751 3.479l1.166 1.166a.354.354 0 0 1-.501.5L3.999 3.73a.354.354 0 0 1 0-.5l2.125-2.126a.354.354 0 0 1 .501 0l3.542 3.542a.354.354 0 0 1-.25.605z"/>
        <path d="M12.042 5.25a.354.354 0 0 1-.354-.354V1.708H9.562v2.48a.354.354 0 0 1-.708 0V1.353c0-.195.159-.354.354-.354h2.834c.195 0 .354.159.354.354v3.542a.354.354 0 0 1-.354.354z"/>
        <path d="M14.116 5.25a.354.354 0 0 1-.25-.604l1.037-1.038c.21-.21.326-.489.326-.786a1.114 1.114 0 0 0-1.899-.788l-1.038 1.038a.354.354 0 0 1-.5-.5l1.037-1.039a1.822 1.822 0 0 1 3.108 1.288c0 .486-.19.944-.533 1.287l-1.038 1.038a.35.35 0 0 1-.25.104z"/>
    </g>
</symbol><symbol id="icon-instagram-logo" viewBox="0 0 512 512">
    <switch>
        <g>
            <path d="M256 49.5c67.3 0 75.2.3 101.8 1.5 24.6 1.1 37.9 5.2 46.8 8.7 11.8 4.6 20.2 10 29 18.8s14.3 17.2 18.8 29c3.4 8.9 7.6 22.2 8.7 46.8 1.2 26.6 1.5 34.5 1.5 101.8s-.3 75.2-1.5 101.8c-1.1 24.6-5.2 37.9-8.7 46.8-4.6 11.8-10 20.2-18.8 29s-17.2 14.3-29 18.8c-8.9 3.4-22.2 7.6-46.8 8.7-26.6 1.2-34.5 1.5-101.8 1.5s-75.2-.3-101.8-1.5c-24.6-1.1-37.9-5.2-46.8-8.7-11.8-4.6-20.2-10-29-18.8s-14.3-17.2-18.8-29c-3.4-8.9-7.6-22.2-8.7-46.8-1.2-26.6-1.5-34.5-1.5-101.8s.3-75.2 1.5-101.8c1.1-24.6 5.2-37.9 8.7-46.8 4.6-11.8 10-20.2 18.8-29s17.2-14.3 29-18.8c8.9-3.4 22.2-7.6 46.8-8.7 26.6-1.3 34.5-1.5 101.8-1.5m0-45.4c-68.4 0-77 .3-103.9 1.5C125.3 6.8 107 11.1 91 17.3c-16.6 6.4-30.6 15.1-44.6 29.1-14 14-22.6 28.1-29.1 44.6-6.2 16-10.5 34.3-11.7 61.2C4.4 179 4.1 187.6 4.1 256s.3 77 1.5 103.9c1.2 26.8 5.5 45.1 11.7 61.2 6.4 16.6 15.1 30.6 29.1 44.6 14 14 28.1 22.6 44.6 29.1 16 6.2 34.3 10.5 61.2 11.7 26.9 1.2 35.4 1.5 103.9 1.5s77-.3 103.9-1.5c26.8-1.2 45.1-5.5 61.2-11.7 16.6-6.4 30.6-15.1 44.6-29.1 14-14 22.6-28.1 29.1-44.6 6.2-16 10.5-34.3 11.7-61.2 1.2-26.9 1.5-35.4 1.5-103.9s-.3-77-1.5-103.9c-1.2-26.8-5.5-45.1-11.7-61.2-6.4-16.6-15.1-30.6-29.1-44.6-14-14-28.1-22.6-44.6-29.1-16-6.2-34.3-10.5-61.2-11.7-27-1.1-35.6-1.4-104-1.4zm0 122.5c-71.4 0-129.4 57.9-129.4 129.4s58 129.4 129.4 129.4 129.4-58 129.4-129.4-58-129.4-129.4-129.4zm0 213.4c-46.4 0-84-37.6-84-84s37.6-84 84-84 84 37.6 84 84-37.6 84-84 84zM390.5 91.3c-16.7 0-30.2 13.5-30.2 30.2s13.5 30.2 30.2 30.2 30.2-13.5 30.2-30.2-13.5-30.2-30.2-30.2z"/>
        </g>
    </switch>
</symbol><symbol id="icon-logo" viewBox="0 0 126 20">
    <title>
        logo
    </title>
    
    <g fill-rule="evenodd">
        <g transform="translate(38.991 -.195)">
            <mask id="b">
                <use xlink:href="#a"/>
            </mask>
            <path mask="url(#b)" d="M-.033 20.053h19.197V.312H-.033z"/>
        </g>
        <g transform="translate(62.386 -.195)">
            <mask id="d">
                <use xlink:href="#c"/>
            </mask>
            <path mask="url(#d)" d="M-.253 20.053h13.728V.312H-.253z"/>
        </g>
        <g transform="translate(81.325 -.195)">
            <mask id="f">
                <use xlink:href="#e"/>
            </mask>
            <path mask="url(#f)" d="M-.57 20.053H13.16V.312H-.569z"/>
        </g>
        <path d="M99.99.73v18.513H103.416V.73z"/>
        <g transform="translate(109.175 -.195)">
            <mask id="h">
                <use xlink:href="#g"/>
            </mask>
            <path mask="url(#h)" d="M.193 20.053H17.36V.31H.193z"/>
        </g>
        <g transform="translate(0 -.195)">
            <mask id="j">
                <use xlink:href="#i"/>
            </mask>
            <path mask="url(#j)" d="M0 20.052h13.039V.31H0z"/>
        </g>
        <path d="M18.912.727v18.517H22.286V7.535h.026l10.693 11.709h1.364V.73h-3.401v11.523h-.026L20.062.73V.727z"/>
    </g>
</symbol><symbol id="icon-place" viewBox="0 0 41 41">
    <title>
        circle
    </title>
    <g fill-rule="evenodd">
        <circle fill-opacity=".7" cx="20.5" cy="20.5" r="20.5"/>
        <g transform="translate(12 13)" fill-rule="nonzero" stroke-width=".3">
            <path d="M14.333 0H1.667C.748 0 0 .714 0 1.59v10.82C0 13.285.748 14 1.667 14h12.666c.919 0 1.667-.714 1.667-1.59V1.59C16 .715 15.252 0 14.333 0zM1.667.636h12.666c.552 0 1 .429 1 .955v.954H.667v-.954c0-.526.448-.955 1-.955zm12.666 12.728H1.667c-.552 0-1-.429-1-.955V3.182h14.666v9.227c0 .526-.448.955-1 .955z"/>
            <ellipse cx="1.667" cy="1.591" rx="1" ry="1"/>
            <ellipse cx="3" cy="1.591" rx="1" ry="1"/>
            <ellipse cx="4.333" cy="1.591" rx="1" ry="1"/>
        </g>
        <path d="M23.3 20.8c.418 0 .641.045.748.152.106.107.152.33.152.748a.3.3 0 0 0 .6 0c0-.418.045-.642.152-.748.107-.106.33-.152.748-.152a.3.3 0 0 0 0-.6c-.418 0-.641-.045-.748-.152-.106-.107-.152-.33-.152-.748a.3.3 0 0 0-.6 0c0 .418-.045.641-.152.748-.107.106-.33.152-.748.152a.3.3 0 0 0 0 .6z" stroke-width=".3" fill-rule="nonzero"/>
        <path d="M15.3 22.8c.418 0 .641.045.748.152.106.107.152.33.152.748a.3.3 0 0 0 .6 0c0-.418.045-.642.152-.748.107-.106.33-.152.748-.152a.3.3 0 0 0 0-.6c-.418 0-.641-.045-.748-.152-.106-.107-.152-.33-.152-.748a.3.3 0 0 0-.6 0c0 .418-.045.641-.152.748-.107.106-.33.152-.748.152a.3.3 0 0 0 0 .6z" stroke-width=".3" fill-rule="nonzero"/>
        <path d="M20.3 18.8c.418 0 .642.045.748.152.106.107.152.33.152.748a.3.3 0 0 0 .6 0c0-.418.045-.642.152-.748.107-.106.33-.152.748-.152a.3.3 0 0 0 0-.6c-.418 0-.641-.045-.748-.152-.106-.107-.152-.33-.152-.748a.3.3 0 0 0-.6 0c0 .418-.045.641-.152.748-.107.106-.33.152-.748.152a.3.3 0 0 0 0 .6z" stroke-width=".3" fill-rule="nonzero"/>
    </g>
</symbol><symbol id="icon-s" viewBox="0 0 20 29">
    <title>
        Clip 15
    </title>
    <path d="M.9 8c0 4.7 3.7 7 7.5 8.5 3.3 1.3 5 2.7 5 4.7 0 1.7-1.5 3-3.6 3h-.6c-1.7-.3-3.7-1.4-4.4-1.9-.1-.1-.2-.1-.2-.1l-.7-.5-.6.9-.3.3-1.3 2-.6.9 1.3.8c.9.6 2.7 1.5 4.9 2 .2 0 .3.1.5.1.6.1 1.3.2 2 .1h.1c5.6 0 9.1-3.8 9.1-7.8 0-5.1-4.4-7.4-8.3-8.9C7.5 10.8 6 9.5 6 7.7c0-1.3 1.2-2.8 3.5-2.8 1.9 0 4.4 1.5 5.3 2 .2.1.3.2.3.2l.7.5.6-.9.1-.2 1.4-2 .6-.9-1.3-.9C16 1.9 13.2.4 9.8.4 3.6.4.9 4.5.9 8z"/>
</symbol><symbol id="icon-snappic" viewBox="0 0 126 20">
    <title>
        snappic
    </title>
    <g fill-rule="evenodd">
        <path d="M48.742.73h-.589l-.12.257-.444.96-.007.013-7.597 16.391-.414.893h3.568l.405-.893h-.009l1.113-2.445h7.82l1.28 2.816.014.023.226.499h3.553l-.303-.662L49.626 2v-.003L49.16.987l-.118-.256h-.3zm-.25 6.545h.079l2.616 5.737h-5.258l2.564-5.737z"/>
        <path d="M63.394.73h-.647V19.245h3.4V12.36h3.27c3.19 0 5.832-2.633 5.832-5.867 0-3.155-2.643-5.763-5.86-5.763h-5.995zm2.753 3.208h3.033c1.465 0 2.694 1.095 2.694 2.53A2.691 2.691 0 0 1 69.18 9.18h-3.033V3.938z"/>
        <path d="M82.016.73h-.647V19.245h3.399V12.36h3.27c3.19 0 5.833-2.633 5.833-5.867 0-3.155-2.643-5.763-5.859-5.763h-5.996zm2.752 3.208h3.035c1.465 0 2.693 1.095 2.693 2.53a2.691 2.691 0 0 1-2.693 2.712h-3.035V3.938z"/>
        <path d="M99.99.73v18.513H103.416V.73z"/>
        <path d="M109.982 10.012c0 5.143 4.152 9.232 9.31 9.232 2.248 0 4.422-.767 6.158-2.394v.003l.056-.055c.018-.016.036-.032.052-.049.006-.004.01-.01.015-.016l.343-.338-.459-.471-1.417-1.458-.342-.357-.382.32c-1.08.863-2.385 1.446-3.922 1.446-3.3 0-5.777-2.726-5.777-5.94 0-3.24 2.451-5.992 5.752-5.992 1.436 0 2.87.56 3.951 1.501l.37.323.371-.384 1.497-1.543c.005-.003.007-.009.012-.012l.352-.366-.38-.333c-.004-.002-.006-.006-.01-.01-.037-.032-.075-.063-.112-.097l-.135-.118v.002c-1.684-1.428-3.51-2.177-5.993-2.177-5.158 0-9.31 4.14-9.31 9.283z"/>
        <path d="M18.912.727v18.517H22.286V7.535h.026l10.693 11.709h1.364V.73h-3.401v11.523h-.026L20.062.73V.727z"/>
        <path d="M.614 5.666c0 3.035 2.424 4.578 4.848 5.555 2.166.874 3.275 1.773 3.275 3.085 0 1.106-1.006 1.98-2.346 1.98-.129 0-.26-.01-.39-.027-1.138-.197-2.425-.942-2.89-1.227l-.017-.01-.147-.09a.016.016 0 0 0-.007-.003l-.481-.294-.4.6-.011.015-.076.116-.866 1.324-.373.56.848.551-.001-.001c.597.382 1.734 1 3.19 1.286l-.003.004c.11.02.225.04.34.055a7.81 7.81 0 0 0 1.314.097l.072.002c3.638 0 5.933-2.443 5.933-5.091 0-3.318-2.889-4.81-5.39-5.812-2.09-.85-3.043-1.672-3.043-2.881 0-.822.798-1.8 2.268-1.8 1.236 0 2.883.977 3.423 1.313l.017.01c.07.043.12.076.146.091.002.003.004.003.007.005l.479.297.405-.595.011-.015.076-.114h.001l.88-1.317.38-.557-.844-.558v.001C10.44 1.694 8.655.73 6.418.73 2.317.729.614 3.378.614 5.666z"/>
    </g>
</symbol></svg>