<?xml version="1.0" encoding="UTF-8"?><!DOCTYPE svg PUBLIC "-//W3C//DTD SVG 1.1//EN" "http://www.w3.org/Graphics/SVG/1.1/DTD/svg11.dtd"><svg xmlns="http://www.w3.org/2000/svg" xmlns:xlink="http://www.w3.org/1999/xlink"><defs>
        <path d="M9.751.926h-.59l-.118.256-.445.96-.008.013L.994 18.546l-.415.893h3.569l.405-.893h-.009l1.113-2.445h7.82l1.28 2.816.014.023.226.499h3.553l-.303-.662-7.612-16.583V2.19l-.465-1.009-.118-.256h-.3zm-.25 6.544h.079l2.615 5.737H6.938L9.502 7.47z" id="a"/>
        <path d="M1.008.926H.361V19.439h3.4V12.556h3.27c3.19 0 5.832-2.633 5.832-5.867 0-3.155-2.643-5.763-5.86-5.763H1.009zm2.753 3.207h3.034c1.464 0 2.693 1.095 2.693 2.53a2.691 2.691 0 0 1-2.693 2.712H3.76V4.133z" id="c"/>
        <path d="M.692.926H.045V19.439h3.398V12.556h3.27c3.19 0 5.833-2.633 5.833-5.867 0-3.155-2.642-5.763-5.858-5.763H.692zm2.751 3.207h3.035c1.465 0 2.694 1.095 2.694 2.53a2.691 2.691 0 0 1-2.694 2.712H3.443V4.133z" id="e"/>
        <path d="M.807 10.207c0 5.143 4.152 9.232 9.31 9.232 2.248 0 4.421-.767 6.158-2.394v.003l.056-.055.052-.049c.006-.004.009-.01.014-.016l.344-.338-.46-.471-1.416-1.458-.342-.357-.383.32c-1.08.863-2.385 1.446-3.921 1.446-3.3 0-5.777-2.726-5.777-5.94 0-3.24 2.45-5.992 5.751-5.992 1.436 0 2.871.56 3.952 1.501l.37.323.37-.384 1.498-1.543.011-.012.352-.366-.38-.333-.009-.01c-.037-.032-.075-.063-.112-.097L16.11 3.1v.002C14.426 1.673 12.6.924 10.117.924c-5.158 0-9.31 4.14-9.31 9.283z" id="g"/>
        <path d="M.614 5.86c0 3.036 2.424 4.579 4.848 5.556 2.166.874 3.275 1.773 3.275 3.085 0 1.106-1.006 1.98-2.346 1.98-.129 0-.26-.01-.39-.027-1.138-.197-2.425-.942-2.89-1.227l-.017-.01-.147-.09a.016.016 0 0 0-.007-.003l-.481-.294-.4.6-.011.015-.076.116-.866 1.324-.373.56.848.551-.001-.001c.597.382 1.734 1 3.19 1.286l-.003.004c.11.02.225.04.34.055a7.81 7.81 0 0 0 1.314.097l.072.002c3.638 0 5.933-2.443 5.933-5.091 0-3.318-2.889-4.81-5.39-5.812-2.09-.85-3.043-1.672-3.043-2.881 0-.822.798-1.8 2.268-1.8 1.236 0 2.883.977 3.423 1.313l.017.01c.07.043.12.076.146.091.002.003.004.003.007.005l.479.297.405-.595.011-.015.076-.114h.001l.88-1.317.38-.557-.844-.558v.001C10.44 1.89 8.655.924 6.418.924 2.317.924.614 3.573.614 5.86z" id="i"/>
    </defs><symbol id="icon-app-window" viewBox="0 0 18 16">
    <title>
        app-window
    </title>
    <g transform="translate(1 1)" fill-rule="nonzero" stroke-width=".3">
        <path d="M14.333 0H1.667C.748 0 0 .714 0 1.59v10.82C0 13.285.748 14 1.667 14h12.666c.919 0 1.667-.714 1.667-1.59V1.59C16 .715 15.252 0 14.333 0zM1.667.636h12.666c.552 0 1 .429 1 .955v.954H.667v-.954c0-.526.448-.955 1-.955zm12.666 12.728H1.667c-.552 0-1-.429-1-.955V3.182h14.666v9.227c0 .526-.448.955-1 .955z"/>
        <ellipse cx="1.667" cy="1.591" rx="1" ry="1"/>
        <ellipse cx="3" cy="1.591" rx="1" ry="1"/>
        <ellipse cx="4.333" cy="1.591" rx="1" ry="1"/>
    </g>
</symbol><symbol id="icon-big-shopping" viewBox="0 0 17 19">
    <title>
        big-shopping
    </title>
    <g fill-rule="nonzero" stroke-width=".3">
        <path d="M7.083 18H.708a.354.354 0 0 1-.354-.354V9.854a.354.354 0 0 1 .709 0v7.438h5.666V9.854a.354.354 0 0 1 .708 0v7.792a.354.354 0 0 1-.354.354z"/>
        <path d="M1.77 10.208H.709a.355.355 0 0 1-.283-.566l1.063-1.417a.354.354 0 0 1 .567.425l-.638.85h.354a.354.354 0 0 1 0 .708z"/>
        <path d="M7.083 10.208H6.021a.354.354 0 0 1 0-.708h.354l-.638-.85a.355.355 0 0 1 .568-.425l1.062 1.417a.354.354 0 0 1-.284.566z"/>
        <path d="M4.958 10.208a.354.354 0 0 1-.354-.354v-1.77a.709.709 0 0 0-1.417 0v1.77a.354.354 0 0 1-.708 0v-1.77c0-.782.636-1.417 1.417-1.417s1.417.635 1.417 1.416v1.771a.354.354 0 0 1-.355.354z"/>
        <path d="M12.75 11.625a.354.354 0 0 1-.354-.354v-1.063a.709.709 0 0 0-1.417 0v1.063a.354.354 0 0 1-.708 0v-1.063c0-.781.635-1.416 1.416-1.416.782 0 1.417.635 1.417 1.416v1.063a.354.354 0 0 1-.354.354z"/>
        <path d="M16.292 16.583H7.083a.354.354 0 0 1-.354-.354v-5.666c0-.196.159-.355.354-.355h2.48a.354.354 0 0 1 0 .709H7.437v4.958h8.5v-4.958h-2.124a.354.354 0 0 1 0-.709h2.479c.195 0 .354.159.354.354v5.667a.354.354 0 0 1-.354.354z"/>
        <path d="M14.875 9.5a.354.354 0 0 1-.354-.354V3.833H6.729v3.188a.354.354 0 0 1-.708 0V3.479c0-.195.159-.354.354-.354h8.5c.195 0 .354.159.354.354v5.667a.354.354 0 0 1-.354.354z"/>
        <path d="M15.583 3.833H5.667a.354.354 0 0 1-.354-.354V1.354c0-.195.158-.354.354-.354h9.916c.196 0 .354.159.354.354V3.48a.354.354 0 0 1-.354.354zm-9.562-.708h9.208V1.708H6.021v1.417z"/>
        <path d="M10.625 8.083a.354.354 0 0 1-.354-.354V1.354a.354.354 0 0 1 .708 0V7.73a.354.354 0 0 1-.354.354z"/>
        <path d="M14.875 6.667h-8.5a.354.354 0 0 1 0-.709h8.5a.354.354 0 0 1 0 .709z"/>
        <path d="M10.625 9.854h-4.25a.354.354 0 0 1 0-.708h4.25a.354.354 0 0 1 0 .708z"/>
    </g>
</symbol><symbol id="icon-facebook" viewBox="0 0 10 19">
    <title>
        facebook
    </title>
    <path d="M9.766.157v2.946H8.014c-.64 0-1.071.134-1.295.402-.223.268-.335.67-.335 1.205v2.11h3.27l-.435 3.303H6.384v8.471H2.97v-8.47H.123V6.82H2.97V4.387c0-1.384.387-2.457 1.161-3.22C4.904.404 5.934.023 7.222.023c1.093 0 1.941.045 2.544.134z" fill-rule="evenodd"/>
</symbol><symbol id="icon-full-cart" viewBox="0 0 17 19">
    <title>
        full-cart
    </title>
    <g fill-rule="nonzero" stroke-width=".3">
        <path d="M13.458 18c-.976 0-1.77-.795-1.77-1.77 0-.977.794-1.772 1.77-1.772s1.771.795 1.771 1.771c0 .976-.795 1.771-1.77 1.771zm0-2.833c-.585 0-1.062.476-1.062 1.062 0 .586.477 1.063 1.062 1.063a1.064 1.064 0 0 0 0-2.125z"/>
        <path d="M6.375 18c-.976 0-1.77-.795-1.77-1.77 0-.977.794-1.772 1.77-1.772s1.77.795 1.77 1.771c0 .976-.794 1.771-1.77 1.771zm0-2.833c-.586 0-1.063.476-1.063 1.062a1.064 1.064 0 0 0 2.125 0c0-.586-.476-1.062-1.062-1.062z"/>
        <path d="M14.875 13.75H6.7c-1.178 0-2.2-.838-2.43-1.993L2.542 3.125H.708a.354.354 0 0 1 0-.708h2.125c.169 0 .314.119.347.284l1.784 8.917A1.775 1.775 0 0 0 6.7 13.042h8.175a.354.354 0 0 1 0 .708z"/>
        <path d="M14.332 10.917H4.604a.354.354 0 0 1 0-.709h9.728c.535 0 .989-.4 1.055-.93l.504-4.028H3.54a.354.354 0 0 1 0-.708h12.75a.355.355 0 0 1 .352.398l-.553 4.425a1.774 1.774 0 0 1-1.758 1.552z"/>
        <path d="M9.917 5.25a.356.356 0 0 1-.251-.103L6.375 1.855 4.751 3.479l1.166 1.166a.354.354 0 0 1-.501.5L3.999 3.73a.354.354 0 0 1 0-.5l2.125-2.126a.354.354 0 0 1 .501 0l3.542 3.542a.354.354 0 0 1-.25.605z"/>
        <path d="M12.042 5.25a.354.354 0 0 1-.354-.354V1.708H9.562v2.48a.354.354 0 0 1-.708 0V1.353c0-.195.159-.354.354-.354h2.834c.195 0 .354.159.354.354v3.542a.354.354 0 0 1-.354.354z"/>
        <path d="M14.116 5.25a.354.354 0 0 1-.25-.604l1.037-1.038c.21-.21.326-.489.326-.786a1.114 1.114 0 0 0-1.899-.788l-1.038 1.038a.354.354 0 0 1-.5-.5l1.037-1.039a1.822 1.822 0 0 1 3.108 1.288c0 .486-.19.944-.533 1.287l-1.038 1.038a.35.35 0 0 1-.25.104z"/>
    </g>
</symbol><symbol id="icon-logo" viewBox="0 0 126 20">
    <title>
        logo
    </title>
    
    <g fill-rule="evenodd">
        <g transform="translate(38.991 -.195)">
            <mask id="b">
                <use xlink:href="#a"/>
            </mask>
            <path mask="url(#b)" d="M-.033 20.053h19.197V.312H-.033z"/>
        </g>
        <g transform="translate(62.386 -.195)">
            <mask id="d">
                <use xlink:href="#c"/>
            </mask>
            <path mask="url(#d)" d="M-.253 20.053h13.728V.312H-.253z"/>
        </g>
        <g transform="translate(81.325 -.195)">
            <mask id="f">
                <use xlink:href="#e"/>
            </mask>
            <path mask="url(#f)" d="M-.57 20.053H13.16V.312H-.569z"/>
        </g>
        <path d="M99.99.73v18.513H103.416V.73z"/>
        <g transform="translate(109.175 -.195)">
            <mask id="h">
                <use xlink:href="#g"/>
            </mask>
            <path mask="url(#h)" d="M.193 20.053H17.36V.31H.193z"/>
        </g>
        <g transform="translate(0 -.195)">
            <mask id="j">
                <use xlink:href="#i"/>
            </mask>
            <path mask="url(#j)" d="M0 20.052h13.039V.31H0z"/>
        </g>
        <path d="M18.912.727v18.517H22.286V7.535h.026l10.693 11.709h1.364V.73h-3.401v11.523h-.026L20.062.73V.727z"/>
    </g>
</symbol></svg>